<?xml version="1.0" encoding="utf-8"?>
<svg width="32px" height="24px" viewBox="0 0 32 24" version="1.1" xmlns:xlink="http://www.w3.org/1999/xlink" xmlns="http://www.w3.org/2000/svg">
  <desc>Created with Lunacy</desc>
  <path d="M18.4953 3.74298L28.8916 19.3375Q28.9478 19.4217 28.9981 19.5095Q29.0484 19.5972 29.0927 19.6882Q29.137 19.7792 29.1751 19.873Q29.2132 19.9668 29.2448 20.0629Q29.2765 20.159 29.3016 20.257Q29.3267 20.3551 29.3451 20.4546Q29.3636 20.5541 29.3752 20.6546Q29.3869 20.7551 29.3918 20.8562Q29.3967 20.9573 29.3948 21.0585Q29.3928 21.1596 29.3841 21.2605Q29.3753 21.3613 29.3598 21.4613Q29.3443 21.5613 29.322 21.66Q29.2998 21.7587 29.2709 21.8557Q29.2421 21.9527 29.2068 22.0476Q29.1715 22.1424 29.1298 22.2346Q29.0882 22.3269 29.0405 22.4161Q28.9927 22.5053 28.9391 22.5911Q28.8854 22.6769 28.8261 22.7589Q28.7668 22.8409 28.702 22.9187Q28.6373 22.9965 28.5675 23.0698Q28.4977 23.143 28.4231 23.2114Q28.3485 23.2798 28.2695 23.343Q28.1905 23.4063 28.1074 23.464Q28.0243 23.5217 27.9374 23.5737Q27.8506 23.6257 27.7605 23.6718Q27.6704 23.7178 27.5774 23.7577Q27.4843 23.7975 27.3888 23.831Q27.2934 23.8645 27.1958 23.8915Q27.0983 23.9184 26.9991 23.9388Q26.9 23.9591 26.7997 23.9727Q26.6994 23.9864 26.5985 23.9932Q26.4975 24 26.3963 24L5.60368 24Q5.50248 24 5.40152 23.9932Q5.30055 23.9864 5.20027 23.9727Q5.09999 23.9591 5.00086 23.9388Q4.90173 23.9184 4.80419 23.8915Q4.70665 23.8645 4.61116 23.831Q4.51566 23.7975 4.42264 23.7577Q4.32962 23.7178 4.2395 23.6718Q4.14938 23.6257 4.06256 23.5737Q3.97575 23.5217 3.89264 23.464Q3.80953 23.4063 3.73049 23.343Q3.65146 23.2798 3.57688 23.2114Q3.50229 23.1431 3.43248 23.0698Q3.36267 22.9965 3.29796 22.9187Q3.23325 22.8409 3.17393 22.7589Q3.11461 22.6769 3.06095 22.5911Q3.00729 22.5053 2.95954 22.4161Q2.91179 22.3269 2.87016 22.2346Q2.82853 22.1424 2.79322 22.0476Q2.7579 21.9527 2.72906 21.8557Q2.70022 21.7587 2.67798 21.66Q2.65575 21.5613 2.64021 21.4613Q2.62468 21.3613 2.61593 21.2605Q2.60717 21.1596 2.60523 21.0585Q2.60329 20.9573 2.60818 20.8562Q2.61307 20.7551 2.62476 20.6546Q2.63645 20.5541 2.65488 20.4546Q2.67332 20.3551 2.69843 20.257Q2.72353 20.159 2.75519 20.0629Q2.78684 19.9668 2.82491 19.873Q2.86297 19.7792 2.90727 19.6882Q2.95157 19.5972 3.0019 19.5095Q3.05223 19.4217 3.10836 19.3375L13.5047 3.74298Q13.5558 3.66632 13.6115 3.59294Q13.6672 3.51956 13.7273 3.44974Q13.7875 3.37992 13.8517 3.31392Q13.916 3.24792 13.9843 3.18599Q14.0525 3.12406 14.1244 3.06644Q14.1963 3.00882 14.2715 2.95572Q14.3468 2.90262 14.4253 2.85424Q14.5037 2.80586 14.5849 2.76238Q14.6661 2.71891 14.7499 2.6805Q14.8336 2.64209 14.9196 2.6089Q15.0055 2.57571 15.0933 2.54786Q15.1812 2.52 15.2705 2.49759Q15.3599 2.47518 15.4505 2.4583Q15.5411 2.44142 15.6325 2.43013Q15.7239 2.41884 15.8159 2.41318Q15.9079 2.40752 16 2.40752Q16.0921 2.40752 16.1841 2.41318Q16.2761 2.41884 16.3675 2.43013Q16.4589 2.44142 16.5495 2.4583Q16.6401 2.47518 16.7295 2.49759Q16.8188 2.52 16.9067 2.54786Q16.9945 2.57571 17.0804 2.6089Q17.1664 2.64209 17.2501 2.6805Q17.3339 2.71891 17.4151 2.76238Q17.4963 2.80586 17.5747 2.85424Q17.6532 2.90262 17.7285 2.95572Q17.8037 3.00882 17.8756 3.06644Q17.9475 3.12406 18.0157 3.18599Q18.084 3.24792 18.1483 3.31392Q18.2125 3.37992 18.2727 3.44974Q18.3328 3.51956 18.3885 3.59294Q18.4442 3.66632 18.4953 3.74298L18.4953 3.74298Z" transform="matrix(-1.0000014 4.831917E-09 -4.831917E-09 -1.0000014 32 24)" id="Triangle" fill="#F9A971" fill-rule="evenodd" stroke="none" />
</svg>